Grandma Vs Granddaughter
[img]http://img1.immage.de/2811image23595421.jpg[/img]

[img]http://img3.immage.de/281156image23598703.jpg[/img]

[img]http://img1.immage.de/2811cdaimage23603453.jpg[/img]

[img]http://img3.immage.de/28111e750bbimage23606843.jpg[/img]



[img]http://img1.immage.de/2811926image23624734.jpg[/img]



[img]http://img1.immage.de/2811fimage23628140.jpg[/img]

[img]http://img2.immage.de/2811d70image23629421.jpg[/img]

[img]http://img3.immage.de/281176abimage23630609.jpg[/img]

[img]http://img2.immage.de/2811aa17image23631828.jpg[/img]

[img]http://img1.immage.de/2811image23633125.jpg[/img]




[img]http://img3.immage.de/2811fcbd363image23637671.jpg[/img]


[img]http://img2.immage.de/2811cf2d6image23643375.jpg[/img]

[img]http://img3.immage.de/2811da736a4image23646593.jpg[/img]

[img]http://img2.immage.de/28115d4bd0image23647984.jpg[/img]

[img]http://img2.immage.de/281192324image23649218.jpg[/img]



[img]http://img3.immage.de/2811621e6image23656546.jpg[/img]

[img]http://img3.immage.de/281132af5fcimage23660718.jpg[/img]

[img]http://img2.immage.de/28119b63c7bimage23662234.jpg[/img]



Format                           : AVI
Format/Info                      : Audio Video Interleave
File size                        : 2.39 GiB
Duration                         : 2h 40mn
Overall bit rate                 : 2 123 Kbps

Video
Format                           : AVC
Format/Info                      : Advanced Video Codec
Format profile                   : Main@L3.0
Format settings, CABAC           : Yes
Format settings, ReFrames        : 2 frames
Codec ID                         : H264
Duration                         : 2h 40mn
Bit rate                         : 2 048 Kbps
Width                            : 720 pixels
Height                           : 480 pixels
Display aspect ratio             : 16/9
Frame rate                       : 29.970 fps
Standard                         : NTSC
Resolution                       : 24 bits
Colorimetry                      : 4:2:0
Scan type                        : Progressive
Bits/(Pixel*Frame)               : 0.198
Stream size                      : 2.30 GiB (96%)
Writing library                  : x264 core 65
Encoding settings                : cabac=1 / ref=2 / deblock=1:0:0 / analyse=0x1:0x111 / me=umh / subme=6 / psy_rd=1.0:0.0 / mixed_ref=0 / me_range=16 / chroma_me=1 / trellis=0 / 8x8dct=0 / cqm=0 / deadzone=21,11 / chroma_qp_offset=-2 / threads=6 / nr=0 / decimate=1 / mbaff=0 / bframes=2 / b_pyramid=0 / b_adapt=1 / b_bias=0 / direct=1 / wpredb=0 / keyint=300 / keyint_min=30 / scenecut=40(pre) / rc=abr / bitrate=2048 / ratetol=1.0 / qcomp=0.60 / qpmin=10 / qpmax=51 / qpstep=4 / ip_ratio=1.40 / pb_ratio=1.30 / aq=1:1.00

Audio
Format                           : MPEG Audio
Format version                   : Version 1
Format profile                   : Layer 3
Codec ID                         : 55
Codec ID/Hint                    : MP3
Duration                         : 2h 40mn
Bit rate mode                    : Constant
Bit rate                         : 64.0 Kbps
Channel(s)                       : 2 channels
Sampling rate                    : 44.1 KHz
Resolution                       : 16 bits
Stream size                      : 73.7 MiB (3%)
Alignment                        : Split accross interleaves
Interleave, duration             : 33 ms (1.00 video frame)